<svg width="253" height="29" viewBox="0 0 253 29" fill="none" xmlns="http://www.w3.org/2000/svg">
<path d="M162.838 28.1773H155.287V7.23939H144.974V0H173.151V7.23939H162.838V28.1773Z" fill="#191919"/>
<path d="M139.757 28.1773H138.24C136.203 28.1773 135.379 27.4403 133.905 25.7931L119.383 10.1005V28.1773H112.014V3.20787C112.014 1.08374 113.184 0 115.525 0H117.346C119.687 0 120.64 0.650243 121.941 2.08078L135.249 16.4295V0H142.575V25.2729C142.575 27.1802 141.622 28.1773 139.757 28.1773Z" fill="#191919"/>
<path d="M109.616 28.1773H101.379L99.0384 23.8423L95.8305 17.8167L91.0187 8.75663L80.7014 28.1773H72.335L86.727 2.08078C87.5073 0.693595 88.6344 0 90.1083 0H91.8423C93.3162 0 94.4433 0.693595 95.2236 2.08078L109.616 28.1773Z" fill="#191919"/>
<path d="M57.0625 28.1773H50.8202C43.364 28.1773 37.9453 23.2354 37.9453 16.0394V0H45.5749V15.4758C45.5749 18.7271 47.829 20.8945 50.9502 20.8945H56.9325C60.0536 20.8945 62.3078 18.7271 62.3078 15.4758V0H69.9374V16.0394C69.9374 23.2354 64.5187 28.1773 57.0625 28.1773Z" fill="#191919"/>
<path d="M35.5467 28.1773H27.0935L25.5763 26.3999C23.4522 27.527 21.0679 28.1773 18.8138 28.1773H14.9123C6.2857 28.1773 0 22.4985 0 14.0886C0 5.67881 6.2857 0 14.9123 0H18.8138C27.4403 0 33.726 6.0256 33.726 13.5251C33.726 17.0798 32.3389 20.2443 30.1714 22.7152L35.5467 28.1773ZM14.3921 21.328H19.6374C20.1143 21.328 20.5477 21.2847 21.0246 21.198C21.0246 21.198 23.0186 20.853 23.9853 20.0838C24.8794 19.3724 25.663 17.6867 25.663 17.6867C26.1399 16.6896 26.4433 15.5192 26.4433 14.2187C26.4433 10.1438 23.5822 7.23939 19.6374 7.23939H14.3921C10.4473 7.23939 7.54284 10.1005 7.54284 14.3054C7.54284 18.5103 10.4473 21.328 14.3921 21.328Z" fill="#191919"/>
<path d="M211.194 28.1773H192.352V20.8945H210.847C212.063 20.8945 212.888 20.2009 212.888 18.9872C212.888 17.7734 212.063 17.0364 211.064 17.0364H192.352V0H219.313V7.23939H199.602V11.0108H211.368C216.578 11.0108 220.529 14.5221 220.529 19.5507C220.529 24.7527 216.578 28.1773 211.194 28.1773Z" fill="#191919"/>
<path d="M236.273 14.5322L223.966 27.8774L237.389 7.66878L240.381 12.3522L248.284 3.85595H245.467L251.694 0.148926L249.618 7.11812L248.877 4.44907L239.684 18.5357L236.273 14.5322Z" fill="#191919"/>
<path d="M233.554 11.1548L222.927 0L230.312 0L236.692 6.97178L233.554 11.1548Z" fill="#191919"/>
<path d="M245.466 25.2086L240.526 19.1723L244.012 14.9893L253 25.2086H245.466Z" fill="#191919"/>
</svg>
