<svg width="62" height="62" viewBox="0 0 62 62" fill="none" xmlns="http://www.w3.org/2000/svg">
<path d="M14.4302 6.12802C13.7241 4.05438 16.3855 2.51781 17.8283 4.16609L27.2447 14.9235C28.1846 15.9972 29.9142 15.7695 30.5442 14.4891L36.8554 1.66113C37.8225 -0.304413 40.7909 0.490979 40.6456 2.6767L39.6973 16.9417C39.6027 18.3655 40.9867 19.4276 42.3375 18.9676L55.8711 14.3596C57.9447 13.6536 59.4813 16.315 57.833 17.7578L47.0756 27.1741C46.0018 28.114 46.2296 29.8437 47.5099 30.4736L60.338 36.7849C62.3035 37.7519 61.5081 40.7203 59.3224 40.575L45.0574 39.6267C43.6336 39.5321 42.5715 40.9162 43.0315 42.267L47.6395 55.8005C48.3455 57.8742 45.6841 59.4107 44.2413 57.7624L34.825 47.005C33.8851 45.9313 32.1554 46.159 31.5255 47.4394L25.2142 60.2674C24.2472 62.2329 21.2788 61.4375 21.4241 59.2518L22.3723 44.9868C22.467 43.563 21.0829 42.5009 19.7321 42.9609L6.19859 47.5689C4.12495 48.275 2.58838 45.6136 4.23666 44.1708L14.9941 34.7544C16.0678 33.8145 15.8401 32.0849 14.5597 31.4549L1.7317 25.1437C-0.233846 24.1766 0.561546 21.2082 2.74727 21.3535L17.0123 22.3018C18.4361 22.3964 19.4982 21.0123 19.0382 19.6615L14.4302 6.12802Z" fill="url(#paint0_linear_815_28)"/>
<defs>
<linearGradient id="paint0_linear_815_28" x1="-3.3659" y1="50.8255" x2="65.4356" y2="11.103" gradientUnits="userSpaceOnUse">
<stop stop-color="#2D0B4D"/>
<stop offset="0.215" stop-color="#65077B"/>
<stop offset="0.44" stop-color="#A00B67"/>
<stop offset="0.64" stop-color="#C32944"/>
<stop offset="0.84" stop-color="#C6533A"/>
<stop offset="1" stop-color="#C99728"/>
</linearGradient>
</defs>
</svg>
