<svg width="64" height="64" viewBox="0 0 64 64" fill="none" xmlns="http://www.w3.org/2000/svg">
<path d="M15.7996 3.9761C15.0082 0.774601 19.2108 -1.17406 21.1431 1.49845L34.6469 20.1757C35.3636 21.167 36.6105 21.6239 37.798 21.3303L60.1722 15.7995C63.3736 15.0081 65.3223 19.2107 62.6498 21.143L43.9726 34.6468C42.9813 35.3636 42.5244 36.6104 42.8179 37.7979L48.3487 60.1721C49.1401 63.3736 44.9375 65.3222 43.0053 62.6497L29.5014 43.9725C28.7847 42.9812 27.5379 42.5243 26.3504 42.8179L3.97617 48.3487C0.774671 49.1401 -1.17399 44.9374 1.49852 43.0052L20.1758 29.5013C21.1671 28.7846 21.6239 27.5378 21.3304 26.3503L15.7996 3.9761Z" fill="url(#paint0_linear_815_26)"/>
<defs>
<linearGradient id="paint0_linear_815_26" x1="-11.0188" y1="52.0553" x2="75.1671" y2="12.0929" gradientUnits="userSpaceOnUse">
<stop stop-color="#2D0B4D"/>
<stop offset="0.215" stop-color="#65077B"/>
<stop offset="0.44" stop-color="#A00B67"/>
<stop offset="0.64" stop-color="#C32944"/>
<stop offset="0.84" stop-color="#C6533A"/>
<stop offset="1" stop-color="#C99728"/>
</linearGradient>
</defs>
</svg>
