<svg width="228" height="33" viewBox="0 0 228 33" fill="none" xmlns="http://www.w3.org/2000/svg">
<path d="M136.868 32.7038H130.522V15.1032H121.855V9.01782H145.542V15.1032H136.876V32.7038H136.868Z" fill="#B3B3B3"/>
<path d="M117.468 32.7038H116.19C114.476 32.7038 113.786 32.0818 112.542 30.7034L100.337 17.5155V32.7122H94.1426V11.7159C94.1426 9.934 95.126 9.01782 97.0929 9.01782H98.6227C100.59 9.01782 101.388 9.56416 102.489 10.7661L113.677 22.8277V9.01782H119.838V30.2579C119.838 31.8633 119.04 32.6954 117.468 32.6954V32.7038Z" fill="#B3B3B3"/>
<path d="M92.1333 32.7038H85.2072L83.2403 29.0644L80.5421 23.996L76.499 16.3808L67.8245 32.7038H60.7891L72.8846 10.7661C73.5403 9.59779 74.4901 9.01782 75.7257 9.01782H77.1799C78.4155 9.01782 79.3653 9.59779 80.0209 10.7661L92.1165 32.7038H92.1333Z" fill="#B3B3B3"/>
<path d="M47.9536 32.7038H42.7086C36.438 32.7038 31.8906 28.5516 31.8906 22.4999V9.01782H38.3041V22.0292C38.3041 24.7609 40.1953 26.5848 42.8262 26.5848H47.8528C50.4753 26.5848 52.3749 24.7609 52.3749 22.0292V9.01782H58.7884V22.4999C58.7884 28.5516 54.2326 32.7038 47.9704 32.7038H47.9536Z" fill="#B3B3B3"/>
<path d="M29.8733 32.7038H22.7706L21.493 31.2077C19.711 32.1575 17.7021 32.7038 15.8108 32.7038H12.5327C5.27868 32.7038 0 27.9296 0 20.8608C0 13.792 5.28709 9.01782 12.5327 9.01782H15.8108C23.0648 9.01782 28.3435 14.0862 28.3435 20.3901C28.3435 23.374 27.1751 26.0385 25.3595 28.1146L29.8817 32.7038H29.8733ZM12.0872 26.9462H16.5001C16.9035 26.9462 17.265 26.9126 17.6685 26.837C17.6685 26.837 19.3412 26.5512 20.1565 25.904C20.9046 25.3072 21.5686 23.8867 21.5686 23.8867C21.9721 23.0462 22.2243 22.0628 22.2243 20.9701C22.2243 17.5492 19.8203 15.1032 16.5001 15.1032H12.0872C8.77539 15.1032 6.32937 17.5071 6.32937 21.0457C6.32937 24.5844 8.76698 26.9462 12.0872 26.9462Z" fill="#B3B3B3"/>
<path d="M177.509 32.7038H161.673V26.5848H177.215C178.24 26.5848 178.929 26.0048 178.929 24.9794C178.929 23.954 178.24 23.3404 177.4 23.3404H161.673V9.01782H184.334V15.1032H167.767V18.272H177.66C182.039 18.272 185.36 21.2223 185.36 25.4501C185.36 29.6779 182.039 32.7038 177.509 32.7038Z" fill="#B3B3B3"/>
<path d="M210 20.0518L201.054 9.0327L192.419 9L201.451 20.5095L189 32.9673L197.125 33L204.439 25.594L210 20.0518Z" fill="#A2A2A2"/>
<path d="M227.301 0.276297L210.061 18.5325L206.48 13.9012L219.492 0.242676L227.301 0.276297Z" fill="#B3B3B3"/>
<path d="M220.349 32.6367L211.044 32.6031L205.093 25.2653L210.035 20.0288L220.349 32.6367Z" fill="#B3B3B3"/>
</svg>
