<svg width="24" height="24" viewBox="0 0 24 24" fill="none" xmlns="http://www.w3.org/2000/svg">
<path d="M12 0L12.6555 8.70456L16.5922 0.913445L13.8667 9.20626L20.4853 3.51472L14.7937 10.1333L23.0866 7.4078L15.2954 11.3445L24 12L15.2954 12.6555L23.0866 16.5922L14.7937 13.8667L20.4853 20.4853L13.8667 14.7937L16.5922 23.0866L12.6555 15.2954L12 24L11.3445 15.2954L7.4078 23.0866L10.1333 14.7937L3.51472 20.4853L9.20626 13.8667L0.913445 16.5922L8.70456 12.6555L0 12L8.70456 11.3445L0.913445 7.4078L9.20626 10.1333L3.51472 3.51472L10.1333 9.20626L7.4078 0.913445L11.3445 8.70456L12 0Z" fill="#D9D9D9"/>
</svg>
