<svg width="36" height="29" viewBox="0 0 36 29" fill="none" xmlns="http://www.w3.org/2000/svg">
<path d="M35.5467 28.1773H27.0935L25.5763 26.3999C23.4522 27.527 21.0679 28.1773 18.8138 28.1773H14.9123C6.2857 28.1773 0 22.4985 0 14.0886C0 5.67881 6.2857 0 14.9123 0H18.8138C27.4403 0 33.726 6.0256 33.726 13.5251C33.726 17.0798 32.3389 20.2443 30.1714 22.7152L35.5467 28.1773ZM14.3921 21.328H19.6374C20.1143 21.328 20.5477 21.2847 21.0246 21.198C21.0246 21.198 23.0186 20.853 23.9853 20.0838C24.8794 19.3724 25.663 17.6867 25.663 17.6867C26.1399 16.6896 26.4433 15.5192 26.4433 14.2187C26.4433 10.1438 23.5822 7.23939 19.6374 7.23939H14.3921C10.4473 7.23939 7.54284 10.1005 7.54284 14.3054C7.54284 18.5103 10.4473 21.328 14.3921 21.328Z" fill="#B3B3B3"/>
</svg>
